<?xml version="1.0" encoding="utf-8"?>
<!-- Generator: Adobe Illustrator 24.0.2, SVG Export Plug-In . SVG Version: 6.00 Build 0)  -->
<svg version="1.1" id="Layer_1" xmlns="http://www.w3.org/2000/svg" xmlns:xlink="http://www.w3.org/1999/xlink" x="0px" y="0px"
	 viewBox="0 0 1080 1080" style="enable-background:new 0 0 1080 1080;" xml:space="preserve">
<style type="text/css">
	.st0{fill:#082326;}
	.st1{fill:none;stroke:#082326;stroke-width:2.8346;stroke-miterlimit:10;}
</style>
<g>
	<g>
		<g>
			<path class="st0" d="M305.4,560.66v33.35h-19.25v-83.52c0-2.71,0.95-5.02,2.85-6.92c1.9-1.9,4.2-2.85,6.92-2.85h31.73
				c9.94,0,17.35,2.53,22.24,7.59c5.06,5.06,7.59,12.57,7.59,22.51c0,9.4-2.44,16.81-7.32,22.24c-4.88,5.06-11.93,7.59-21.15,7.59
				H305.4z M305.4,543.85h18.71c5.06,0,8.68-1.08,10.85-3.25c2.35-1.99,3.53-5.42,3.53-10.3c0-4.16-1.08-7.5-3.25-10.03
				c-2.53-2.17-5.88-3.25-10.03-3.25h-19.8V543.85z"/>
			<path class="st0" d="M361.8,500.73h9.76c2.53,0,4.7,0.86,6.51,2.58c1.8,1.72,2.71,3.84,2.71,6.37v84.33H361.8V500.73z"/>
			<path class="st0" d="M430.13,591.03c-3.8,1.99-7.82,3.21-12.07,3.66c-4.25,0.45-8,0.68-11.25,0.68c-6.51,0-12.2-1.76-17.08-5.29
				c-4.88-3.53-7.32-9.36-7.32-17.49c0-7.59,2.21-13.02,6.64-16.27c4.43-3.25,10.08-5.42,16.95-6.51c0.9,0,1.99-0.14,3.25-0.41
				c1.26-0.27,2.71-0.5,4.34-0.68c7.95-1.08,11.93-3.43,11.93-7.05c0-2.71-1.4-4.47-4.2-5.29c-2.8-0.81-5.38-1.22-7.73-1.22
				c-2.53,0-4.79,0.37-6.78,1.08c-1.99,0.72-3.44,2.08-4.34,4.07h-18.17c0.72-5.6,3.25-10.21,7.59-13.83
				c4.88-4.16,11.84-6.24,20.88-6.24c10.12,0,17.72,1.72,22.78,5.15c5.24,3.62,7.86,8.68,7.86,15.19v24.68
				c0,7.23-1.31,12.88-3.93,16.95C436.87,586.28,433.75,589.22,430.13,591.03z M425.8,557.68c-2.53,1.27-6.06,2.44-10.58,3.53
				l-6.24,1.36c-3.25,0.91-5.61,2.08-7.05,3.53c-1.27,1.99-1.9,3.98-1.9,5.97c0,2.71,0.81,4.88,2.44,6.51
				c1.63,1.45,3.97,2.17,7.05,2.17c5.06,0,9.04-1.45,11.93-4.34c2.89-2.89,4.34-6.87,4.34-11.93V557.68z"/>
			<path class="st0" d="M456.44,619.5v-14.91h5.15c3.61,0,6.46-0.86,8.54-2.58c2.08-1.72,2.48-4.47,1.22-8.27l-25.22-71.86h20.88
				l14.64,50.98l12.74-44.47c1.09-4.34,3.97-6.51,8.68-6.51h13.02l-27.66,82.17c-2.17,5.97-4.88,10.21-8.13,12.75
				c-3.25,2.17-8.59,3.25-16,3.25c-0.54,0-1.18,0-1.9,0c-0.72,0-1.36,0-1.9,0c-0.54-0.18-1.22-0.32-2.03-0.41
				C457.66,619.55,456.98,619.5,456.44,619.5z"/>
			<path class="st0" d="M588.5,582.89c-3.25,4.7-7.14,8.14-11.66,10.3c-4.7,1.99-9.86,2.98-15.46,2.98
				c-13.38,0-23.96-4.43-31.73-13.29c-7.96-8.68-11.93-20.61-11.93-35.79c0-15,3.89-26.85,11.66-35.52
				c8.14-9.04,18.89-13.56,32.27-13.56c11.57,0,21.15,2.81,28.74,8.41c7.41,5.97,11.84,13.74,13.29,23.32h-13.02
				c-3.8,0-6.6-1.72-8.41-5.15c-1.27-2.17-3.08-4.16-5.42-5.97c-3.62-2.53-8.41-3.8-14.37-3.8c-7.77,0-13.92,2.8-18.44,8.41
				c-4.52,5.97-6.78,13.92-6.78,23.86c0,10.13,2.35,18.08,7.05,23.86c4.52,5.61,10.94,8.41,19.25,8.41c6.14,0,11.21-1.72,15.19-5.15
				c3.97-3.61,6.51-8.58,7.59-14.91h-11.39c-2.71,0-5.02-0.95-6.91-2.85c-1.9-1.9-2.85-4.2-2.85-6.92v-6.24h38.78v50.71h-5.15
				c-5.06,0-8.23-2.53-9.49-7.59L588.5,582.89z"/>
			<path class="st0" d="M608.02,594.01v-34.98c0-7.05,1.04-12.97,3.12-17.76c2.08-4.79,4.92-8.63,8.54-11.52
				c3.43-2.71,7.46-4.7,12.07-5.97c4.61-1.26,9.36-1.9,14.24-1.9c0.36,0,0.81,0,1.36,0c0.54,0,0.99,0,1.36,0v19.25h-6.24
				c-5.25,0-9.13,1.27-11.66,3.8c-2.53,2.53-3.8,6.51-3.8,11.93v37.15H608.02z"/>
			<path class="st0" d="M659.55,587.51c-3.8-3.25-6.51-7.64-8.13-13.15c-1.63-5.51-2.44-11.25-2.44-17.22
				c0-4.88,0.68-9.76,2.03-14.64c1.36-4.88,3.48-8.95,6.37-12.2c4.7-5.42,10.75-8.63,18.17-9.63c7.41-0.99,14.1-0.41,20.07,1.76
				c6.87,2.71,11.93,7.42,15.19,14.1c3.07,5.97,4.61,12.93,4.61,20.88c0,5.79-0.64,10.76-1.9,14.92c-1.27,4.16-2.89,7.69-4.88,10.58
				c-4.34,5.97-9.86,9.67-16.54,11.12c-5.97,1.63-11.98,1.76-18.03,0.41C667.99,593.06,663.16,590.76,659.55,587.51z M672.56,539.78
				c-3.8,4.16-5.52,10.35-5.15,18.58c0.36,8.23,1.9,13.97,4.61,17.22c1.08,1.45,2.98,2.67,5.69,3.66c2.71,1,5.47,1.08,8.27,0.27
				c2.8-0.81,5.29-2.85,7.46-6.1c2.17-3.25,3.34-8.5,3.53-15.73c0-6.51-1.04-11.39-3.12-14.64c-2.08-3.25-4.47-5.33-7.19-6.24
				c-2.71-0.9-5.42-0.95-8.13-0.13S673.83,538.52,672.56,539.78z"/>
			<path class="st0" d="M781.3,521.88v42.3c0,12.84-3.35,21.25-10.03,25.22c-6.69,3.98-14.01,5.97-21.96,5.97
				c-7.78-0.36-14.87-2.53-21.29-6.51c-6.42-3.97-9.63-12.2-9.63-24.68v-42.3h18.98v46.1c0,4.34,1.26,7.5,3.8,9.49
				c2.53,1.99,5.42,2.98,8.68,2.98s6.19-0.99,8.81-2.98c2.62-1.99,3.93-5.15,3.93-9.49V531.1c0-2.53,0.86-4.7,2.58-6.51
				c1.72-1.8,3.93-2.71,6.64-2.71H781.3z"/>
			<path class="st0" d="M847.2,594.01h-9.49c-2.71,0-4.93-0.86-6.64-2.58c-1.72-1.72-2.58-3.93-2.58-6.64v-36.88
				c0-4.34-1.31-7.5-3.93-9.49c-2.62-1.99-5.56-2.98-8.81-2.98s-6.15,1-8.68,2.98c-2.53,1.99-3.8,5.15-3.8,9.49v46.1h-18.98v-42.3
				c0-12.29,3.21-20.52,9.63-24.68c6.42-4.16,13.51-6.42,21.29-6.78c7.95,0,15.27,2.08,21.96,6.24
				c6.69,4.16,10.03,12.57,10.03,25.22V594.01z"/>
			<path class="st0" d="M897.91,500.46h9.22c2.53,0,4.7,0.95,6.51,2.85c1.8,1.9,2.71,4.03,2.71,6.37v52.88
				c0,12.84-3.71,21.52-11.12,26.03c-7.42,4.52-15.46,6.78-24.13,6.78c-4.7,0-9.31-0.77-13.83-2.3c-4.52-1.53-8.14-4.02-10.85-7.46
				c-5.25-6.69-7.86-15.82-7.86-27.39c0-11.39,2.62-20.52,7.86-27.39c5.42-7.05,12.38-10.58,20.88-10.58c4.52,0,8.5,0.91,11.93,2.71
				c3.61,2.17,6.51,4.97,8.68,8.41V500.46z M866.99,557.4c0,7.23,1.36,12.75,4.07,16.54c2.71,3.8,6.6,5.69,11.66,5.69
				c4.88,0,8.68-1.9,11.39-5.69c2.53-3.8,3.8-9.31,3.8-16.54c0-6.51-1.36-11.66-4.07-15.46c-2.89-3.61-6.78-5.42-11.66-5.42
				c-4.7,0-8.41,1.9-11.12,5.69C868.35,545.84,866.99,550.9,866.99,557.4z"/>
		</g>
		<g>
			<path class="st1" d="M275.39,533.6c-24.82,0-44.94-20.12-44.94-44.94c0-24.82,20.12-44.94,44.94-44.94s44.94,20.12,44.94,44.94"
				/>
			<path class="st1" d="M275.39,690.44L193.2,523.01c-29.54-60.18,12.62-131.69,79.63-133.38c0.85-0.02,1.7-0.03,2.56-0.03
				c0.85,0,1.71,0.01,2.56,0.03c51.16,1.3,87.83,43.27,89.18,89.83"/>
			<line class="st1" x1="317.61" y1="605.58" x2="275.39" y2="690.44"/>
		</g>
	</g>
	<g>
		<path class="st0" d="M357.91,674.41l0.07,0.21c0.09,5-1.3,8.89-4.19,11.66c-2.89,2.77-6.86,4.16-11.91,4.16
			c-5.21,0-9.37-1.67-12.47-5.01c-3.1-3.34-4.64-8.03-4.64-14.06v-14.11c0-6.01,1.52-10.7,4.57-14.07
			c3.05-3.38,7.15-5.06,12.29-5.06c5.19,0,9.24,1.34,12.15,4.03c2.91,2.69,4.32,6.62,4.23,11.79l-0.07,0.21h-6.81
			c0-3.63-0.79-6.3-2.37-8.01c-1.58-1.71-3.96-2.57-7.12-2.57c-3.12,0-5.53,1.17-7.23,3.51c-1.7,2.34-2.55,5.7-2.55,10.08v14.21
			c0,4.42,0.87,7.81,2.62,10.16c1.75,2.35,4.21,3.53,7.4,3.53c3.07,0,5.38-0.84,6.91-2.53s2.3-4.39,2.3-8.12H357.91z"/>
		<path class="st0" d="M399.74,689.7h-7.09v-22.42h-19.9v22.42h-7.09v-50.84h7.09v23.01h19.9v-23.01h7.09V689.7z"/>
		<path class="st0" d="M443.67,671.3c0,6.03-1.63,10.73-4.89,14.09s-7.62,5.05-13.09,5.05c-5.4,0-9.7-1.68-12.89-5.05
			s-4.78-8.06-4.78-14.09v-13.97c0-6.01,1.59-10.71,4.78-14.11c3.19-3.4,7.47-5.1,12.85-5.1c5.47,0,9.84,1.69,13.11,5.08
			c3.27,3.39,4.91,8.1,4.91,14.13V671.3z M436.62,657.23c0-4.42-0.95-7.78-2.85-10.07c-1.9-2.29-4.6-3.44-8.12-3.44
			c-3.4,0-6.01,1.15-7.84,3.44c-1.83,2.29-2.74,5.65-2.74,10.07v14.07c0,4.47,0.92,7.86,2.76,10.16c1.84,2.3,4.46,3.46,7.86,3.46
			c3.51,0,6.22-1.15,8.1-3.44c1.89-2.29,2.83-5.69,2.83-10.18V657.23z"/>
		<path class="st0" d="M486.2,671.3c0,6.03-1.63,10.73-4.89,14.09s-7.62,5.05-13.09,5.05c-5.4,0-9.7-1.68-12.89-5.05
			s-4.78-8.06-4.78-14.09v-13.97c0-6.01,1.59-10.71,4.78-14.11c3.19-3.4,7.47-5.1,12.85-5.1c5.47,0,9.84,1.69,13.11,5.08
			c3.27,3.39,4.91,8.1,4.91,14.13V671.3z M479.15,657.23c0-4.42-0.95-7.78-2.85-10.07c-1.9-2.29-4.6-3.44-8.12-3.44
			c-3.4,0-6.01,1.15-7.84,3.44c-1.83,2.29-2.74,5.65-2.74,10.07v14.07c0,4.47,0.92,7.86,2.76,10.16c1.84,2.3,4.46,3.46,7.86,3.46
			c3.51,0,6.22-1.15,8.1-3.44c1.89-2.29,2.83-5.69,2.83-10.18V657.23z"/>
		<path class="st0" d="M517.7,676.92c0-2.33-0.66-4.24-1.99-5.75c-1.33-1.5-3.67-2.87-7.02-4.1c-4.77-1.49-8.44-3.41-11-5.76
			c-2.56-2.35-3.84-5.48-3.84-9.39c0-4,1.41-7.3,4.24-9.9c2.83-2.59,6.45-3.89,10.88-3.89c4.7,0,8.47,1.44,11.31,4.33
			c2.84,2.89,4.21,6.51,4.12,10.86l-0.07,0.21h-6.81c0-2.98-0.79-5.39-2.37-7.23c-1.58-1.84-3.67-2.76-6.25-2.76
			c-2.51,0-4.46,0.79-5.85,2.37c-1.39,1.58-2.08,3.56-2.08,5.94c0,2.21,0.73,4.04,2.2,5.48c1.47,1.44,3.93,2.81,7.4,4.09
			c4.63,1.51,8.16,3.49,10.58,5.94s3.63,5.61,3.63,9.5c0,4.14-1.43,7.44-4.28,9.9c-2.85,2.46-6.59,3.68-11.23,3.68
			c-4.47,0-8.36-1.33-11.66-3.98c-3.31-2.65-4.9-6.46-4.78-11.42l0.07-0.21h6.84c0,3.45,0.91,6.02,2.74,7.72
			c1.83,1.7,4.09,2.55,6.79,2.55c2.63,0,4.69-0.74,6.18-2.22C516.95,681.4,517.7,679.42,517.7,676.92z"/>
		<path class="st0" d="M557.05,666.1H539.8v18.23h20.32v5.38h-27.41v-50.84h27.24v5.45H539.8v16.38h17.25V666.1z"/>
		<path class="st0" d="M597.63,663.66h0.21l10.62-24.79h7.96l-15.26,32.55v18.3h-7.09v-18.82l-14.98-32.02h7.89L597.63,663.66z"/>
		<path class="st0" d="M655.53,671.3c0,6.03-1.63,10.73-4.89,14.09c-3.26,3.36-7.62,5.05-13.09,5.05c-5.4,0-9.7-1.68-12.89-5.05
			s-4.78-8.06-4.78-14.09v-13.97c0-6.01,1.59-10.71,4.78-14.11c3.19-3.4,7.47-5.1,12.85-5.1c5.47,0,9.84,1.69,13.11,5.08
			c3.27,3.39,4.91,8.1,4.91,14.13V671.3z M648.48,657.23c0-4.42-0.95-7.78-2.85-10.07c-1.9-2.29-4.6-3.44-8.12-3.44
			c-3.4,0-6.01,1.15-7.84,3.44c-1.83,2.29-2.74,5.65-2.74,10.07v14.07c0,4.47,0.92,7.86,2.76,10.16s4.46,3.46,7.86,3.46
			c3.51,0,6.22-1.15,8.1-3.44s2.83-5.69,2.83-10.18V657.23z"/>
		<path class="st0" d="M697.12,638.86v33.63c0,5.63-1.58,10.03-4.75,13.2c-3.17,3.17-7.28,4.75-12.33,4.75
			c-4.96,0-8.99-1.59-12.1-4.77c-3.11-3.18-4.66-7.57-4.66-13.18v-33.63h7.09v33.63c0,3.93,0.89,7.01,2.67,9.24
			c1.78,2.22,4.11,3.33,7,3.33c2.98,0,5.38-1.11,7.21-3.32c1.83-2.21,2.74-5.3,2.74-9.25v-33.63H697.12z"/>
		<path class="st0" d="M713.25,667.81v21.89h-7.09V638.9h14.98c4.89,0,8.67,1.25,11.33,3.74c2.67,2.49,4,6.06,4,10.72
			c0,2.65-0.62,4.98-1.87,6.97c-1.25,1.99-3.03,3.53-5.36,4.63c2.61,0.88,4.49,2.35,5.64,4.4c1.15,2.05,1.73,4.59,1.73,7.61v4.44
			c0,1.56,0.15,3.01,0.45,4.36c0.3,1.35,0.84,2.4,1.61,3.14v0.8h-7.3c-0.79-0.77-1.31-1.94-1.55-3.51c-0.25-1.57-0.37-3.2-0.37-4.87
			v-4.29c0-2.84-0.66-5.09-1.97-6.74c-1.32-1.65-3.14-2.48-5.46-2.48H713.25z M713.25,662.4h7.54c2.93,0,5.1-0.77,6.5-2.32
			c1.4-1.55,2.1-3.74,2.1-6.58c0-2.91-0.68-5.17-2.04-6.77c-1.36-1.61-3.43-2.41-6.2-2.41h-7.89V662.4z"/>
		<path class="st0" d="M786.51,667.11h-17.77v22.59h-7.09v-50.84h27.94v5.45h-20.85v17.39h17.77V667.11z"/>
		<path class="st0" d="M803.87,689.7h-7.09v-50.84h7.09V689.7z"/>
		<path class="st0" d="M838.58,666.1h-17.25v18.23h20.32v5.38h-27.41v-50.84h27.24v5.45h-20.15v16.38h17.25V666.1z"/>
		<path class="st0" d="M855.87,684.33h20.57v5.38h-27.66v-50.84h7.09V684.33z"/>
		<path class="st0" d="M883.24,689.7v-50.84h14.42c5.49,0,9.98,2.04,13.46,6.11c3.48,4.07,5.22,9.31,5.22,15.71v7.23
			c0,6.42-1.74,11.66-5.22,15.71s-7.97,6.08-13.46,6.08H883.24z M890.33,644.31v40.02h7.33c3.49,0,6.29-1.53,8.38-4.59
			c2.1-3.06,3.14-7,3.14-11.82v-7.3c0-4.75-1.05-8.65-3.14-11.72c-2.09-3.06-4.89-4.59-8.38-4.59H890.33z"/>
	</g>
</g>
</svg>
